<?xml version="1.0" encoding="utf-8"?>
<!-- Generator: Adobe Illustrator 16.0.0, SVG Export Plug-In . SVG Version: 6.00 Build 0)  -->
<!DOCTYPE svg PUBLIC "-//W3C//DTD SVG 1.1//EN" "http://www.w3.org/Graphics/SVG/1.1/DTD/svg11.dtd">
<svg version="1.1" id="Layer_1" xmlns="http://www.w3.org/2000/svg" xmlns:xlink="http://www.w3.org/1999/xlink" x="0px" y="0px"
	 width="431.311px" height="150.667px" viewBox="0 0 431.311 150.667" enable-background="new 0 0 431.311 150.667"
	 xml:space="preserve">
<g>
	<path fill="none" d="M29.234,51.475c0.453-0.913,0.812-1.916,1.066-2.979c0.261-1.09,0.445-2.256,0.548-3.466
		c0.104-1.234,0.157-2.485,0.157-3.716c0-2.223-0.146-4.326-0.435-6.249c-0.28-1.857-0.791-3.49-1.519-4.853
		c-0.697-1.305-1.659-2.342-2.857-3.081c-1.191-0.734-2.77-1.107-4.69-1.107c-2.02,0-3.667,0.375-4.896,1.113
		c-1.228,0.738-2.191,1.759-2.863,3.036c-0.705,1.339-1.192,2.948-1.448,4.78c-0.266,1.9-0.401,3.96-0.401,6.123
		c0,1.962,0.118,3.884,0.35,5.711c0.222,1.751,0.691,3.322,1.395,4.668c0.676,1.296,1.652,2.355,2.901,3.149
		c1.235,0.786,2.941,1.184,5.071,1.184c1.349,0,2.522-0.184,3.489-0.547c0.956-0.359,1.782-0.861,2.454-1.491
		C28.236,53.113,28.802,52.347,29.234,51.475z"/>
	<path fill="none" d="M231.624,139.263c0.453-0.914,0.812-1.916,1.065-2.979c0.262-1.093,0.446-2.258,0.549-3.465
		c0.104-1.237,0.156-2.488,0.156-3.717c0-2.227-0.146-4.329-0.436-6.248c-0.279-1.856-0.79-3.489-1.519-4.853
		c-0.697-1.306-1.658-2.342-2.857-3.081c-1.191-0.735-2.77-1.107-4.69-1.107c-2.02,0-3.667,0.374-4.896,1.113
		c-1.229,0.737-2.191,1.759-2.863,3.036c-0.705,1.338-1.192,2.946-1.449,4.78c-0.266,1.9-0.401,3.959-0.401,6.121
		c0,1.963,0.118,3.885,0.35,5.712c0.222,1.751,0.691,3.321,1.395,4.668c0.676,1.295,1.652,2.354,2.901,3.148
		c1.236,0.786,2.942,1.185,5.071,1.185c1.348,0,2.521-0.185,3.489-0.548c0.955-0.358,1.781-0.86,2.454-1.491
		C230.625,140.902,231.19,140.136,231.624,139.263z"/>
	<path fill="none" d="M77.076,116.17c-0.883-0.44-1.834-0.746-2.826-0.911c-1.038-0.171-2.125-0.258-3.23-0.258
		c-1.412,0-2.707,0.28-3.851,0.834c-1.135,0.55-2.124,1.384-2.937,2.479c-0.837,1.124-1.497,2.568-1.963,4.295
		c-0.475,1.761-0.716,3.854-0.716,6.222c0,2.655,0.27,4.956,0.802,6.837c0.521,1.845,1.249,3.373,2.165,4.543
		c0.892,1.14,1.975,1.992,3.219,2.533c1.272,0.553,2.701,0.833,4.245,0.833c1.708,0,3.187-0.273,4.396-0.813
		c1.192-0.53,2.178-1.277,2.93-2.221c0.768-0.962,1.342-2.136,1.709-3.49c0.38-1.401,0.573-2.969,0.573-4.659v-11.596
		c-0.612-1.142-1.292-2.086-2.025-2.811C78.792,117.218,77.953,116.607,77.076,116.17z"/>
	<path fill="none" d="M297.71,12.216c0.192,0.238,0.467,0.458,0.817,0.654c0.345,0.193,0.771,0.399,1.27,0.615
		c0.567-0.257,1.047-0.507,1.431-0.745c0.415-0.257,0.741-0.527,0.97-0.804c0.209-0.254,0.351-0.523,0.433-0.819
		c0.095-0.34,0.143-0.764,0.143-1.26c0-0.618-0.043-1.176-0.128-1.659c-0.068-0.389-0.194-0.71-0.375-0.958
		c-0.162-0.22-0.405-0.393-0.743-0.527c-0.391-0.156-0.944-0.234-1.647-0.234c-0.762,0-1.747,0.108-2.12,0.622
		c-0.255,0.353-0.56,1.117-0.56,2.756c0,0.645,0.046,1.168,0.136,1.556C297.407,11.73,297.53,11.992,297.71,12.216z"/>
	<path fill="none" d="M130.662,139.263c0.452-0.912,0.811-1.914,1.066-2.979c0.261-1.09,0.445-2.255,0.548-3.464
		c0.104-1.235,0.157-2.486,0.157-3.717c0-2.224-0.146-4.325-0.435-6.248c-0.28-1.857-0.791-3.49-1.519-4.854
		c-0.697-1.305-1.659-2.341-2.858-3.08c-1.191-0.735-2.77-1.107-4.69-1.107c-2.02,0-3.667,0.374-4.896,1.113
		c-1.229,0.737-2.191,1.759-2.863,3.036c-0.705,1.338-1.192,2.946-1.449,4.78c-0.266,1.9-0.401,3.959-0.401,6.121
		c0,1.963,0.118,3.885,0.35,5.712c0.222,1.751,0.691,3.321,1.395,4.668c0.676,1.295,1.652,2.354,2.901,3.148
		c1.236,0.786,2.942,1.185,5.071,1.185c1.348,0,2.521-0.185,3.489-0.548c0.955-0.358,1.781-0.86,2.454-1.491
		C129.663,140.902,130.228,140.136,130.662,139.263z"/>
	<path  d="M36.896,25.613c-1.693-1.798-3.665-3.2-5.862-4.167c-1.777-0.781-3.612-1.319-5.472-1.605
		c0.273-0.861,0.493-1.694,0.655-2.488c0.238-1.169,0.359-2.241,0.359-3.186c0-1.33-0.176-2.494-0.524-3.461
		c-0.342-0.948-0.784-1.793-1.315-2.512c-0.529-0.715-1.139-1.345-1.813-1.873c-0.62-0.485-1.221-0.935-1.828-1.367
		c-0.393-0.263-0.768-0.526-1.126-0.79c-0.308-0.226-0.577-0.472-0.8-0.73c-0.207-0.239-0.375-0.506-0.499-0.794
		c-0.051-0.117-0.168-0.5-0.168-1.538v-1H8.287v1c0,2.179,0.22,3.821,0.671,5.019C9.404,7.304,9.99,8.311,10.7,9.112
		c0.707,0.799,1.516,1.443,2.404,1.916c0.81,0.432,1.62,0.816,2.392,1.137c0.564,0.247,1.123,0.498,1.675,0.754
		c0.485,0.226,0.922,0.492,1.299,0.792c0.34,0.271,0.603,0.579,0.801,0.939c0.181,0.329,0.269,0.715,0.269,1.181
		c0,0.503-0.086,1.107-0.257,1.796c-0.144,0.582-0.366,1.268-0.662,2.044c-2.311,0.217-4.375,0.677-6.145,1.372
		c-1.937,0.76-3.625,1.727-5.02,2.873c-1.4,1.15-2.571,2.47-3.481,3.924c-0.896,1.431-1.615,2.953-2.138,4.525
		c-0.519,1.563-0.888,3.173-1.096,4.785c-0.207,1.595-0.312,3.146-0.312,4.608c0,3.105,0.549,5.992,1.631,8.581
		c1.083,2.591,2.595,4.843,4.493,6.693c1.896,1.849,4.138,3.301,6.666,4.318c2.525,1.016,5.265,1.531,8.142,1.531
		c2.924,0,5.706-0.521,8.267-1.548c2.565-1.03,4.827-2.495,6.722-4.354s3.411-4.109,4.507-6.686c1.096-2.58,1.651-5.452,1.651-8.536
		c0-3.59-0.515-6.758-1.531-9.417C39.958,29.671,38.585,27.409,36.896,25.613z M21.611,55.789c-2.13,0-3.836-0.398-5.071-1.184
		c-1.249-0.794-2.225-1.853-2.901-3.149c-0.704-1.346-1.173-2.917-1.395-4.668c-0.232-1.827-0.35-3.749-0.35-5.711
		c0-2.163,0.135-4.222,0.401-6.123c0.256-1.832,0.744-3.44,1.448-4.78c0.672-1.277,1.635-2.298,2.863-3.036
		c1.229-0.739,2.876-1.113,4.896-1.113c1.921,0,3.499,0.373,4.69,1.107c1.199,0.739,2.16,1.776,2.857,3.081
		c0.728,1.363,1.239,2.996,1.519,4.853c0.289,1.923,0.435,4.025,0.435,6.249c0,1.231-0.053,2.481-0.157,3.716
		c-0.103,1.209-0.287,2.375-0.548,3.466c-0.255,1.063-0.614,2.065-1.066,2.979c-0.433,0.872-0.998,1.638-1.681,2.276
		c-0.672,0.63-1.499,1.131-2.454,1.491C24.133,55.605,22.959,55.789,21.611,55.789z"/>
	<path  d="M91.159,16.435c-0.659-2.143-1.525-4.219-2.576-6.17c-1.069-1.983-2.414-3.752-3.996-5.256
		C82.993,3.496,81.114,2.276,79,1.385c-2.127-0.896-4.595-1.351-7.336-1.351c-2.694,0-5.121,0.449-7.212,1.335
		c-2.082,0.881-3.923,2.098-5.473,3.617c-1.533,1.504-2.833,3.267-3.865,5.239c-1.015,1.941-1.846,4.025-2.468,6.194
		c-0.62,2.158-1.069,4.392-1.336,6.639c-0.265,2.229-0.4,4.41-0.4,6.481c0,0.663,0.018,1.645,0.054,2.946
		c0.036,1.316,0.165,2.861,0.382,4.593c0.217,1.734,0.559,3.66,1.016,5.725c0.461,2.086,1.131,4.266,1.991,6.476
		c0.861,2.213,1.973,4.477,3.304,6.729c1.339,2.268,3.006,4.473,4.954,6.555l0.296,0.317h5.827v-6.597l-0.497-0.289
		c-0.898-0.524-1.676-1.316-2.312-2.356c-0.68-1.112-1.252-2.412-1.702-3.863c-0.458-1.477-0.812-3.092-1.055-4.799
		c-0.246-1.732-0.429-3.488-0.546-5.221c-0.117-1.739-0.188-3.456-0.211-5.105c-0.024-1.668-0.036-3.18-0.036-4.533
		c0-3.153,0.113-6.192,0.336-9.034c0.219-2.792,0.684-5.282,1.382-7.401c0.671-2.037,1.636-3.669,2.868-4.85
		c1.175-1.126,2.713-1.673,4.702-1.673c1.404,0,2.57,0.327,3.565,0.999c1.033,0.698,1.927,1.647,2.658,2.821
		c0.757,1.218,1.375,2.636,1.836,4.214c0.473,1.624,0.841,3.32,1.096,5.042c0.256,1.74,0.434,3.484,0.526,5.186
		c0.094,1.719,0.142,3.299,0.142,4.696c0,3.1-0.03,6.096-0.089,8.904c-0.058,2.746-0.271,5.281-0.63,7.533
		c-0.353,2.207-0.916,4.164-1.672,5.815c-0.717,1.564-1.747,2.807-3.062,3.694l-0.441,0.297v6.486h5.806l0.298-0.335
		c1.861-2.089,3.458-4.189,4.745-6.242c1.284-2.049,2.36-4.082,3.198-6.042c0.839-1.962,1.494-3.917,1.946-5.811
		c0.448-1.876,0.779-3.713,0.985-5.46c0.206-1.747,0.328-3.451,0.364-5.065c0.036-1.603,0.054-3.131,0.054-4.587
		c0-2-0.141-4.125-0.419-6.319C92.29,20.774,91.815,18.571,91.159,16.435z"/>
	<path  d="M143.662,3.706c-1.26-1.27-2.76-2.208-4.459-2.788c-1.658-0.564-3.455-0.851-5.341-0.851
		c-1.186,0-2.248,0.099-3.156,0.293c-0.956,0.205-1.828,0.551-2.591,1.03c-0.776,0.487-1.467,1.155-2.053,1.983
		c-0.204,0.288-0.402,0.603-0.593,0.943c-0.608-1.056-1.33-1.927-2.156-2.6c-1.344-1.095-2.927-1.65-4.704-1.65
		c-0.846,0-1.741,0.092-2.659,0.273c-1.002,0.198-1.95,0.63-2.819,1.286c-0.871,0.656-1.612,1.584-2.202,2.758
		c-0.588,1.168-0.949,2.654-1.103,4.528c-0.039,0.404-0.132,0.613-0.203,0.716c-0.115,0.167-0.243,0.288-0.395,0.372
		c-0.183,0.102-0.392,0.172-0.623,0.209c-0.29,0.048-0.578,0.072-0.856,0.072c-0.699,0-1.086-0.076-1.289-0.14
		c-0.186-0.059-0.318-0.139-0.393-0.239c-0.083-0.112-0.13-0.268-0.143-0.478c-0.02-0.333,0.013-0.761,0.097-1.28l1.109-7.087
		l-8.199-0.045L98.891,8.16c0,1.319,0.215,2.538,0.64,3.622c0.431,1.101,1.049,2.051,1.837,2.826
		c0.785,0.771,1.727,1.375,2.801,1.796c1.064,0.417,2.232,0.629,3.473,0.629c1.012,0,1.929-0.109,2.724-0.323
		c0.87-0.234,1.661-0.678,2.35-1.319c0.654-0.607,1.247-1.425,1.763-2.43c0.486-0.947,0.97-2.174,1.46-3.726
		c0.083-0.359,0.184-0.691,0.299-0.988c0.08-0.207,0.192-0.381,0.343-0.532c0.139-0.138,0.339-0.252,0.595-0.337
		c0.207-0.069,0.591-0.152,1.254-0.152c0.634,0,1.139,0.101,1.499,0.299c0.356,0.197,0.624,0.454,0.818,0.785
		c0.223,0.379,0.379,0.835,0.465,1.355c0.098,0.586,0.147,1.21,0.147,1.862l0.036,5.049c0,0.753-0.062,1.502-0.183,2.227
		c-0.106,0.636-0.396,1.309-0.861,2l-0.17,0.253v3.824l10.502-0.083v-3.792l-0.189-0.262c-0.488-0.676-0.804-1.342-0.94-1.983
		c-0.151-0.706-0.228-1.429-0.228-2.149v-5.192c0-0.056,0.008-0.293,0.114-1.009c0.067-0.458,0.228-0.945,0.478-1.447
		c0.228-0.458,0.587-0.877,1.068-1.246c0.427-0.325,1.058-0.49,1.876-0.49c1.905,0,2.385,0.778,2.542,1.033
		c0.518,0.843,0.781,2.18,0.781,3.973v33.019c0,0.693-0.013,1.459-0.036,2.296c-0.022,0.774-0.127,1.556-0.312,2.321
		c-0.181,0.746-0.472,1.484-0.866,2.192c-0.371,0.666-0.911,1.269-1.604,1.792c-0.708,0.534-1.648,0.97-2.796,1.295
		c-1.178,0.335-2.667,0.505-4.424,0.505c-1.094,0-2.201-0.197-3.289-0.586c-1.058-0.378-2.029-0.997-2.886-1.841
		c-0.862-0.85-1.573-1.962-2.113-3.309c-0.544-1.354-0.821-3.039-0.821-5.006c0-1.319,0.064-2.579,0.19-3.744
		c0.123-1.136,0.331-2.158,0.617-3.039c0.277-0.849,0.622-1.569,1.027-2.141c0.353-0.499,0.772-0.838,1.282-1.039l0.641-0.251
		l-0.052-5.718l-1.088,0.107c-2.189,0.215-4.181,0.782-5.918,1.686c-1.734,0.902-3.231,2.063-4.451,3.451
		c-1.22,1.388-2.167,2.99-2.814,4.763c-0.645,1.765-0.971,3.645-0.971,5.585c0,1.889,0.275,3.678,0.818,5.319
		c0.541,1.639,1.301,3.155,2.259,4.506c0.953,1.347,2.097,2.566,3.4,3.625c1.294,1.053,2.722,1.948,4.244,2.659
		c1.509,0.706,3.122,1.254,4.794,1.631c1.673,0.376,3.399,0.567,5.131,0.567c3.685,0,6.924-0.556,9.627-1.651
		c2.717-1.101,4.986-2.603,6.746-4.465c1.757-1.861,3.075-4.043,3.916-6.487c0.83-2.414,1.25-4.972,1.25-7.604V15.728
		c0-2.749-0.356-5.14-1.058-7.106C145.914,6.625,144.916,4.972,143.662,3.706z"/>
	<path  d="M210.337,56.172c1.124-0.919,2.032-2.027,2.699-3.295c0.681-1.293,1.026-2.741,1.026-4.301
		c0-1.962-0.165-3.691-0.489-5.14c-0.335-1.49-0.879-2.826-1.618-3.971c-0.737-1.143-1.698-2.174-2.856-3.067
		c-1.113-0.857-2.487-1.707-4.083-2.524l-1.04-0.533l-3.728,11.314h1.382c1.23,0,2.279,0.064,3.118,0.192
		c0.741,0.112,1.324,0.31,1.733,0.586c0.363,0.246,0.62,0.579,0.785,1.016c0.194,0.519,0.293,1.234,0.293,2.126
		c0,0.643-0.116,1.187-0.345,1.614c-0.231,0.43-0.547,0.771-0.965,1.042c-0.454,0.293-1.012,0.508-1.659,0.641
		c-0.704,0.144-1.483,0.217-2.317,0.217c-0.606,0-1.144-0.169-1.644-0.517c-0.558-0.387-1.076-0.941-1.54-1.646
		c-0.498-0.757-0.959-1.658-1.373-2.677c-0.424-1.044-0.815-2.192-1.162-3.41c-0.354-1.245-0.686-2.541-0.987-3.854
		c-0.309-1.342-0.606-2.667-0.89-3.972l-0.822-3.82c-0.185-0.853-0.377-1.659-0.574-2.409c6.44-1.899,11.395-4.199,14.738-6.843
		c3.653-2.89,5.505-6.402,5.505-10.438c0-2.05-0.272-3.853-0.809-5.358c-0.545-1.53-1.311-2.814-2.275-3.819
		c-0.972-1.011-2.126-1.767-3.429-2.247c-1.273-0.469-2.664-0.707-4.132-0.707c-0.958,0-2.061,0.108-3.279,0.32
		c-1.264,0.221-2.485,0.636-3.632,1.236c-1.186,0.621-2.198,1.474-3.009,2.535c-0.86,1.124-1.296,2.562-1.296,4.273
		c0,1.634,0.288,3.201,0.854,4.655c0.558,1.434,1.438,2.91,2.616,4.385l0.559,0.7l9.513-6.01l-1.755-0.747
		c-1.272-0.542-2.236-1.104-2.865-1.672c-0.707-0.637-0.774-0.989-0.778-1.065c-0.016-0.58,0.202-0.813,0.535-0.987
		c0.59-0.308,1.48-0.464,2.646-0.464c0.579,0,1.062,0.124,1.477,0.378c0.463,0.285,0.843,0.636,1.16,1.075
		c0.324,0.447,0.574,0.967,0.744,1.543c0.174,0.597,0.263,1.193,0.263,1.772c0,0.867-0.175,1.635-0.536,2.349
		c-0.378,0.749-0.898,1.456-1.546,2.101c-0.67,0.669-1.459,1.29-2.345,1.847c-0.91,0.572-1.879,1.093-2.881,1.548
		c-1.012,0.459-2.058,0.875-3.109,1.237c-1.068,0.368-2.078,0.688-2.985,0.946c-0.645,0.171-1.258,0.348-1.834,0.529
		c-0.537-1.95-1.194-3.822-1.958-5.578c-0.897-2.061-1.913-3.991-3.02-5.736c-1.112-1.752-2.326-3.347-3.609-4.74
		c-1.289-1.399-2.63-2.608-3.989-3.594c-1.376-0.999-2.797-1.772-4.223-2.3c-3.188-1.177-6.36-0.988-8.846,0.01
		c-1.357,0.545-2.531,1.303-3.492,2.253c-0.959,0.949-1.717,2.073-2.253,3.341c-0.534,1.26-0.831,2.636-0.882,4.096
		c-0.027,1.034,0.132,2.108,0.474,3.194c0.329,1.047,0.785,2.083,1.354,3.081c0.562,0.984,1.212,1.932,1.933,2.816
		c0.722,0.887,1.493,1.697,2.29,2.406l0.726,0.646l8.464-8.993l-1.628-0.427c-1.108-0.291-2.081-0.559-2.918-0.807
		c-0.77-0.226-1.404-0.477-1.885-0.745c-0.403-0.225-0.7-0.48-0.883-0.761c-0.167-0.254-0.248-0.58-0.249-0.951
		c0.019-0.429,0.088-0.834,0.205-1.204c0.097-0.309,0.25-0.57,0.468-0.8c0.227-0.24,0.513-0.429,0.874-0.58
		c0.363-0.152,0.829-0.229,1.383-0.229c0.787,0,1.527,0.231,2.261,0.705c0.8,0.517,1.575,1.234,2.302,2.131
		c0.753,0.929,1.475,2.035,2.146,3.287c0.682,1.274,1.307,2.641,1.86,4.064c0.557,1.433,1.058,2.928,1.489,4.441
		c0.338,1.191,0.639,2.36,0.898,3.485c-2.159,0.533-4.173,1.068-6,1.593c-2.141,0.616-4.134,1.407-5.923,2.35
		c-1.813,0.956-3.5,2.182-5.015,3.644c-1.518,1.466-2.936,3.371-4.214,5.662l-0.596,1.067l4.843,1.549l0.288-0.08
		c0.344-0.096,0.685-0.159,1.013-0.188c1.728-0.149,2.916,0.054,3.761,0.582c0.69,0.431,1.213,0.986,1.597,1.697
		c0.405,0.75,0.68,1.63,0.818,2.615c0.147,1.059,0.223,2.155,0.223,3.255c0,0.899-0.095,1.819-0.283,2.734
		c-0.18,0.875-0.474,1.673-0.871,2.37c-0.379,0.663-0.862,1.187-1.477,1.601c-0.574,0.387-1.279,0.576-2.123,0.576
		c-0.597-0.02-1.259-0.141-1.968-0.362c-0.708-0.221-1.364-0.524-1.953-0.904c-0.561-0.361-1.026-0.787-1.381-1.266
		c-0.292-0.393-0.426-0.79-0.411-1.216l0.036-0.996l-5.377-0.215l-0.051,0.987c-0.079,1.52,0.155,2.975,0.695,4.325
		c0.533,1.334,1.286,2.52,2.239,3.525c0.954,1.005,2.086,1.811,3.365,2.394c1.293,0.589,2.67,0.887,4.094,0.887
		c3.277,0,6.055-0.434,8.257-1.29c2.217-0.862,4.016-1.977,5.348-3.315c1.34-1.347,2.297-2.833,2.844-4.417
		c0.534-1.545,0.805-3.025,0.805-4.399c0-2.043-0.367-3.985-1.091-5.771c-0.725-1.788-1.752-3.365-3.054-4.687
		c-1.299-1.317-2.869-2.388-4.667-3.182c-0.927-0.409-1.906-0.724-2.931-0.943c0.185-0.096,0.371-0.19,0.557-0.281
		c1.04-0.51,2.158-0.967,3.324-1.358c1.179-0.396,2.444-0.746,3.76-1.042c1.053-0.237,2.181-0.453,3.362-0.643
		c0.841,3.759,1.816,7.23,2.904,10.331c1.186,3.381,2.566,6.312,4.103,8.709c1.566,2.444,3.354,4.362,5.315,5.699
		c2.018,1.376,4.299,2.074,6.779,2.074c1.672,0,3.274-0.251,4.763-0.747C207.896,57.798,209.222,57.083,210.337,56.172z"/>
	<path  d="M261.586,53.83c0.99-2.051,1.492-4.481,1.492-7.222V15.524c0-2.415-0.514-4.61-1.526-6.525
		c-1.007-1.899-2.421-3.531-4.201-4.85c-1.759-1.3-3.862-2.301-6.253-2.975c-2.363-0.667-4.954-1.005-7.701-1.005
		c-2.434,0-4.738,0.285-6.849,0.848c-2.151,0.574-4.053,1.482-5.653,2.699c-1.62,1.233-2.909,2.827-3.831,4.738
		c-0.919,1.905-1.386,4.18-1.386,6.764c0,1.866,0.395,3.618,1.174,5.207c0.756,1.545,1.716,2.931,2.854,4.121
		c1.127,1.178,2.373,2.186,3.703,2.997c1.327,0.809,2.606,1.403,3.803,1.766l0.89,0.27l3.556-9.235l-1.074-0.287
		c-0.862-0.231-1.728-0.557-2.571-0.969c-0.823-0.4-1.575-0.89-2.234-1.455c-0.641-0.549-1.172-1.173-1.577-1.855
		c-0.374-0.629-0.556-1.311-0.556-2.085c0-0.925,0.236-1.75,0.722-2.522c0.507-0.807,1.182-1.501,2.003-2.065
		c0.855-0.585,1.829-1.05,2.894-1.38c2.275-0.707,4.583-0.597,6.788-0.099c1.133,0.257,2.157,0.67,3.045,1.229
		c0.853,0.537,1.545,1.233,2.056,2.068c0.496,0.811,0.747,1.823,0.747,3.008v34.274c0,2.702-0.752,4.583-2.3,5.751
		c-1.613,1.217-3.964,1.834-6.988,1.834c-3.011,0-5.341-0.749-6.927-2.226c-1.567-1.458-2.361-3.787-2.361-6.92
		c0-1.095,0.105-2.103,0.313-2.997c0.21-0.902,0.481-1.708,0.806-2.396c0.323-0.686,0.686-1.282,1.076-1.774
		c0.381-0.479,0.756-0.858,1.115-1.125l0.592-0.439l-1.728-4.927l-0.809,0.11c-0.699,0.095-1.505,0.256-2.395,0.479
		c-0.913,0.229-1.854,0.563-2.797,0.994c-0.954,0.435-1.894,0.997-2.792,1.67c-0.92,0.689-1.752,1.535-2.473,2.515
		c-0.726,0.984-1.315,2.138-1.75,3.429c-0.438,1.296-0.66,2.785-0.66,4.426c0,2.464,0.551,4.736,1.638,6.752
		c1.076,1.998,2.583,3.729,4.479,5.146c1.872,1.399,4.098,2.491,6.616,3.245c2.5,0.749,5.234,1.128,8.128,1.128
		c2.998,0,5.762-0.319,8.214-0.948c2.495-0.64,4.667-1.637,6.457-2.965C259.165,57.619,260.59,55.892,261.586,53.83z"/>
	<path  d="M319.732,23.511c-1.607-1.882-3.686-3.524-6.177-4.879c-1.868-1.015-4.031-1.892-6.453-2.62
		c0.843-0.604,1.495-1.279,1.949-2.016c0.787-1.275,1.187-2.668,1.187-4.14c0-1.699-0.239-3.179-0.711-4.399
		c-0.486-1.258-1.205-2.304-2.136-3.11c-0.917-0.794-2.037-1.383-3.328-1.75c-1.239-0.352-2.646-0.53-4.185-0.53
		c-1.443,0-2.803,0.178-4.042,0.53c-1.289,0.366-2.413,0.953-3.341,1.745c-0.938,0.801-1.679,1.841-2.201,3.089
		c-0.515,1.226-0.775,2.715-0.775,4.425c0,1.036,0.114,1.971,0.341,2.78c0.235,0.843,0.611,1.604,1.118,2.261
		c0.502,0.647,1.155,1.224,1.941,1.712c0.312,0.194,0.65,0.382,1.016,0.563c-0.494,0.406-0.955,0.841-1.382,1.302
		c-0.822,0.889-1.529,1.854-2.1,2.868c-0.574,1.016-1.015,2.081-1.31,3.165c-0.296,1.087-0.446,2.186-0.446,3.266
		c0,1.358,0.237,2.695,0.704,3.973c0.472,1.298,1.195,2.479,2.152,3.51c0.954,1.031,2.175,1.9,3.629,2.584
		c1.446,0.681,3.166,1.112,5.109,1.279l1.086,0.094v-8.374l-0.743-0.198c-1.76-0.469-3.061-1.144-3.866-2.007
		c-0.769-0.821-1.142-1.669-1.142-2.592c0-1.052,0.408-2.166,1.212-3.312c0.774-1.104,1.887-2.11,3.312-2.997
		c2.092,0.677,3.941,1.588,5.501,2.708c1.671,1.202,3.07,2.547,4.16,3.997c1.084,1.445,1.899,2.972,2.424,4.535
		c0.522,1.566,0.787,3.092,0.787,4.536c0,3.543-0.229,6.654-0.682,9.245c-0.439,2.517-1.185,4.608-2.215,6.217
		c-0.998,1.56-2.335,2.738-3.974,3.501c-1.681,0.783-3.815,1.179-6.348,1.179c-2.618,0-4.922-0.408-6.848-1.212
		c-1.884-0.786-3.476-2.03-4.729-3.699c-1.282-1.705-2.264-3.918-2.919-6.578c-0.667-2.708-1.006-6.008-1.006-9.806
		c0-0.945,0.012-2.059,0.035-3.341c0.023-1.282,0.064-2.619,0.124-4.015c0.058-1.366,0.152-2.771,0.282-4.174
		c0.126-1.369,0.297-2.679,0.508-3.892c0.203-1.171,0.465-2.205,0.776-3.073c0.349-0.966,0.697-1.431,0.928-1.65l0.337-0.319
		l-0.297-5.104h-2.505l-0.256,0.177c-0.168,0.116-0.366,0.205-0.588,0.266c-0.245,0.067-0.458,0.101-0.631,0.101
		c-1.27,0-2.583-0.326-3.903-0.968c-1.339-0.652-2.585-1.628-3.704-2.9l-1.751-1.991v10.513l0.397,0.3
		c0.778,0.588,1.604,1.019,2.452,1.278c1.076,0.331,2.24,0.437,3.438,0.355c-0.767,0.871-1.466,1.731-2.091,2.572
		c-1.188,1.601-2.167,3.323-2.908,5.118c-0.741,1.798-1.285,3.787-1.617,5.911c-0.328,2.096-0.494,4.523-0.494,7.213
		c0,2.32,0.235,4.605,0.7,6.792c0.467,2.193,1.185,4.287,2.135,6.223c0.955,1.944,2.188,3.742,3.663,5.343
		c1.479,1.607,3.254,3.007,5.275,4.162c2.014,1.149,4.33,2.051,6.884,2.681c2.544,0.627,5.412,0.946,8.526,0.946
		c2.512,0,4.89-0.322,7.066-0.957c2.173-0.632,4.187-1.527,5.986-2.659c1.799-1.131,3.426-2.498,4.836-4.062
		c1.406-1.558,2.609-3.289,3.575-5.146c0.961-1.851,1.704-3.833,2.209-5.89c0.505-2.063,0.761-4.198,0.761-6.346
		c0-2.851-0.383-5.493-1.138-7.854C322.554,27.573,321.348,25.402,319.732,23.511z M297.759,7.101
		c0.373-0.514,1.358-0.622,2.12-0.622c0.703,0,1.257,0.079,1.647,0.234c0.338,0.134,0.581,0.307,0.743,0.527
		c0.181,0.247,0.307,0.569,0.375,0.958c0.085,0.483,0.128,1.041,0.128,1.659c0,0.496-0.048,0.919-0.143,1.26
		c-0.082,0.296-0.224,0.564-0.433,0.819c-0.229,0.277-0.555,0.547-0.97,0.804c-0.384,0.237-0.863,0.487-1.431,0.745
		c-0.499-0.215-0.925-0.421-1.27-0.615c-0.351-0.195-0.625-0.416-0.817-0.654c-0.18-0.224-0.303-0.485-0.375-0.803
		c-0.09-0.388-0.136-0.911-0.136-1.556C297.199,8.218,297.504,7.454,297.759,7.101z"/>
	<path  d="M373.213,16.435c-0.659-2.144-1.526-4.22-2.576-6.17c-1.068-1.982-2.412-3.751-3.996-5.256
		c-1.594-1.513-3.473-2.732-5.587-3.624c-2.128-0.896-4.596-1.351-7.336-1.351c-2.694,0-5.121,0.449-7.213,1.335
		c-2.083,0.882-3.924,2.099-5.473,3.617c-1.532,1.504-2.833,3.267-3.864,5.239c-1.016,1.94-1.846,4.024-2.469,6.194
		c-0.618,2.154-1.067,4.388-1.335,6.639c-0.266,2.224-0.4,4.405-0.4,6.481c0,0.663,0.018,1.645,0.054,2.946
		c0.036,1.316,0.165,2.862,0.383,4.594c0.22,1.744,0.562,3.67,1.016,5.724c0.46,2.084,1.131,4.264,1.992,6.475
		c0.861,2.215,1.973,4.479,3.303,6.729c1.338,2.267,3.004,4.472,4.953,6.555l0.297,0.317h5.827v-6.597l-0.496-0.289
		c-0.898-0.523-1.676-1.316-2.312-2.356c-0.682-1.113-1.254-2.413-1.702-3.863c-0.457-1.474-0.812-3.089-1.055-4.799
		c-0.245-1.732-0.43-3.488-0.546-5.221c-0.118-1.739-0.188-3.456-0.212-5.105c-0.024-1.668-0.036-3.18-0.036-4.533
		c0-3.149,0.113-6.188,0.337-9.034c0.219-2.793,0.684-5.283,1.382-7.401c0.67-2.036,1.635-3.668,2.867-4.85
		c1.176-1.126,2.713-1.673,4.702-1.673c1.403,0,2.57,0.327,3.565,0.999c1.032,0.698,1.927,1.648,2.658,2.822
		c0.757,1.217,1.374,2.635,1.836,4.214c0.473,1.624,0.841,3.32,1.096,5.042c0.256,1.738,0.434,3.483,0.527,5.185
		c0.093,1.722,0.141,3.302,0.141,4.697c0,3.108-0.03,6.104-0.09,8.904c-0.057,2.742-0.27,5.276-0.63,7.533
		c-0.353,2.206-0.915,4.162-1.672,5.815c-0.717,1.564-1.747,2.808-3.062,3.694l-0.441,0.297v6.486h5.807l0.299-0.335
		c1.864-2.093,3.46-4.193,4.744-6.242c1.286-2.053,2.362-4.086,3.198-6.043c0.839-1.964,1.493-3.918,1.946-5.811
		c0.448-1.881,0.779-3.718,0.984-5.46s0.327-3.446,0.364-5.065c0.036-1.603,0.054-3.131,0.054-4.587c0-2.003-0.141-4.13-0.419-6.319
		C374.343,20.769,373.868,18.565,373.213,16.435z"/>
	<path  d="M430.261,37.61c-0.685-1.763-1.571-3.368-2.636-4.772c-1.055-1.392-2.24-2.625-3.524-3.668
		c-1.254-1.018-2.5-1.901-3.697-2.621c-0.732-0.449-1.424-0.881-2.074-1.297c-0.613-0.391-1.155-0.782-1.612-1.163
		c-0.412-0.343-0.737-0.693-0.97-1.044c-0.176-0.262-0.261-0.524-0.261-0.801c0-0.27,0.084-0.383,0.175-0.467
		c0.214-0.196,0.516-0.348,0.895-0.452c0.467-0.128,1.002-0.214,1.589-0.255c0.631-0.043,1.247-0.065,1.844-0.065h1v-9.296h-1
		c-1.808,0-3.406,0.324-4.751,0.962c-1.333,0.633-2.458,1.47-3.346,2.487c-0.88,1.013-1.54,2.16-1.96,3.409
		c-0.415,1.231-0.625,2.468-0.625,3.678c0,1.126,0.151,2.137,0.448,3.003c0.294,0.865,0.689,1.64,1.172,2.301
		c0.474,0.65,1.021,1.241,1.628,1.753c0.562,0.477,1.137,0.936,1.723,1.376c0.629,0.474,1.279,1.099,1.935,1.857
		c0.645,0.747,1.241,1.665,1.774,2.729c0.537,1.077,0.987,2.312,1.336,3.67c0.348,1.352,0.523,2.872,0.523,4.519
		c0,4.256-0.778,7.432-2.313,9.438c-1.492,1.951-3.926,2.899-7.44,2.899c-1.715,0-3.234-0.222-4.517-0.659
		c-1.217-0.415-2.247-1.109-3.064-2.064c-0.837-0.975-1.481-2.308-1.918-3.964c-0.451-1.715-0.681-3.879-0.681-6.43V12.877
		c0-4.173-0.994-7.39-2.955-9.561C394.969,1.116,392.165,0,388.624,0c-1.541,0-2.901,0.215-4.046,0.639
		c-1.171,0.436-2.146,1.046-2.901,1.815c-0.755,0.769-1.319,1.682-1.679,2.716c-0.344,0.997-0.519,2.06-0.519,3.16v8.024h5.245
		l0.041-6.531c0-0.373,0.058-0.756,0.173-1.138c0.112-0.375,0.272-0.716,0.477-1.015c0.181-0.266,0.401-0.476,0.673-0.64
		c0.235-0.143,0.505-0.212,0.822-0.212c0.67,0,1.049,0.113,1.249,0.209c0.195,0.092,0.364,0.311,0.505,0.649
		c0.197,0.479,0.336,1.178,0.41,2.077c0.08,0.967,0.121,2.246,0.121,3.802v31.933c0,1.768,0.299,3.451,0.887,5.002
		c0.58,1.538,1.388,2.968,2.399,4.253c1.003,1.274,2.195,2.431,3.545,3.44c1.342,1.003,2.812,1.863,4.372,2.556
		c1.554,0.691,3.2,1.227,4.894,1.591c1.692,0.364,3.415,0.548,5.122,0.548c2.489,0,4.994-0.368,7.445-1.093
		c2.48-0.733,4.743-1.886,6.725-3.427c2.004-1.557,3.642-3.578,4.869-6.006c1.232-2.439,1.857-5.377,1.857-8.731
		C431.311,41.423,430.957,39.4,430.261,37.61z"/>
	<path  d="M39.617,119.104c-0.764-1.531-1.662-2.983-2.67-4.314c-0.993-1.312-2.07-2.575-3.201-3.754
		c-1.114-1.161-2.282-2.282-3.472-3.333c-1.173-1.033-2.309-2.016-3.411-2.95c-1.041-0.875-2.045-1.746-3.015-2.61
		c-0.946-0.845-1.792-1.676-2.515-2.471c-0.699-0.771-1.263-1.527-1.676-2.251c-0.363-0.635-0.547-1.233-0.547-1.777
		c0-0.136,0.024-0.292,0.072-0.465c0.03-0.109,0.119-0.367,0.372-0.861c0.207-0.403,0.538-0.955,0.984-1.641
		c0.459-0.704,1.077-1.604,1.853-2.699l1.119-1.578H11.645v4.054c0,1.666,0.271,3.294,0.805,4.84
		c0.521,1.509,1.223,3.009,2.086,4.46c0.854,1.438,1.846,2.878,2.949,4.28c1.093,1.394,2.223,2.794,3.346,4.148
		c1.211,1.512,2.417,3.041,3.616,4.585c1.17,1.51,2.227,3.072,3.141,4.643c0.902,1.551,1.644,3.169,2.204,4.809
		c0.545,1.596,0.821,3.273,0.821,4.987c0,1.783-0.174,3.574-0.517,5.322c-0.333,1.7-0.905,3.236-1.699,4.566
		c-0.771,1.292-1.814,2.355-3.101,3.16c-1.258,0.788-2.895,1.188-4.863,1.188c-2.226,0-4.144-0.298-5.702-0.885
		c-1.526-0.575-2.793-1.394-3.768-2.431c-0.973-1.036-1.696-2.303-2.148-3.767c-0.468-1.515-0.706-3.225-0.706-5.084
		c0-1.237,0.596-2.546,1.771-3.889c1.248-1.428,3.356-2.853,6.267-4.235l1.401-0.666l-9.586-8.099l-0.646,0.552
		c-2.483,2.122-4.345,4.541-5.532,7.189C0.6,124.767,0,127.708,0,130.868c0,3.231,0.479,6.115,1.424,8.57
		c0.957,2.487,2.352,4.595,4.146,6.262c1.791,1.666,4.009,2.928,6.593,3.75c2.541,0.808,5.431,1.218,8.591,1.218
		c3.264,0,6.25-0.569,8.876-1.691c2.622-1.122,4.89-2.665,6.74-4.588c1.845-1.919,3.28-4.177,4.266-6.711
		c0.981-2.526,1.479-5.229,1.479-8.031c0-1.976-0.227-3.862-0.674-5.609C40.997,122.304,40.383,120.645,39.617,119.104z"/>
	<path  d="M86.708,91.504c-3.522-2.376-8.873-3.581-15.901-3.581c-2.34,0-4.584,0.285-6.672,0.849
		c-2.111,0.57-3.988,1.418-5.579,2.52c-1.613,1.119-2.914,2.51-3.865,4.135c-0.968,1.653-1.458,3.553-1.458,5.646
		c0,1.523,0.348,2.93,1.034,4.18c0.645,1.178,1.518,2.354,2.596,3.497l0.622,0.66l8.544-6.613l-1.115-0.778
		c-1.108-0.773-1.909-1.419-2.381-1.919c-0.445-0.471-0.557-0.729-0.583-0.812c0.026-1.513,0.732-2.515,2.213-3.147
		c1.748-0.746,4.308-1.124,7.609-1.124c1.728,0,3.246,0.146,4.512,0.434c1.233,0.279,2.27,0.668,3.082,1.154
		c0.761,0.457,1.333,0.99,1.699,1.583c0.357,0.582,0.531,1.183,0.531,1.836v11.122c-0.234-0.165-0.481-0.324-0.74-0.479
		c-1.003-0.595-2.091-1.112-3.233-1.536c-1.139-0.424-2.311-0.753-3.483-0.979c-1.176-0.226-2.25-0.34-3.189-0.34
		c-1.603,0-3.254,0.216-4.911,0.642c-1.654,0.426-3.268,1.055-4.793,1.868c-1.528,0.813-2.989,1.842-4.342,3.057
		c-1.361,1.222-2.556,2.64-3.553,4.213c-0.997,1.574-1.797,3.341-2.38,5.249c-0.586,1.918-0.883,4.026-0.883,6.265
		c0,3.129,0.561,6.045,1.668,8.668c1.108,2.626,2.682,4.925,4.678,6.833c1.993,1.905,4.394,3.409,7.135,4.469
		c2.736,1.059,5.76,1.595,8.987,1.595c2.312,0,4.646-0.309,6.936-0.916c2.332-0.619,4.463-1.659,6.335-3.091
		c1.888-1.444,3.438-3.365,4.609-5.708c1.172-2.347,1.767-5.261,1.767-8.66v-29.931C92.203,97.619,90.354,93.966,86.708,91.504z
		 M81.594,120.798v11.596c0,1.69-0.193,3.258-0.573,4.659c-0.367,1.354-0.942,2.528-1.709,3.49c-0.752,0.943-1.738,1.69-2.93,2.221
		c-1.209,0.54-2.688,0.813-4.396,0.813c-1.544,0-2.973-0.28-4.245-0.833c-1.244-0.541-2.327-1.394-3.219-2.533
		c-0.916-1.17-1.644-2.698-2.165-4.543c-0.532-1.881-0.802-4.182-0.802-6.837c0-2.367,0.241-4.461,0.716-6.222
		c0.466-1.727,1.126-3.171,1.963-4.295c0.813-1.096,1.802-1.93,2.937-2.479c1.144-0.554,2.439-0.834,3.851-0.834
		c1.105,0,2.192,0.087,3.23,0.258c0.992,0.165,1.942,0.471,2.826,0.911c0.877,0.437,1.716,1.048,2.493,1.817
		C80.302,118.712,80.982,119.657,81.594,120.798z"/>
	<path  d="M138.322,113.401c-1.693-1.799-3.665-3.2-5.862-4.166c-1.777-0.781-3.613-1.319-5.472-1.606
		c0.274-0.861,0.493-1.694,0.655-2.487c0.238-1.169,0.359-2.241,0.359-3.187c0-1.329-0.176-2.494-0.524-3.462
		c-0.342-0.948-0.785-1.793-1.315-2.512c-0.529-0.715-1.139-1.345-1.813-1.873c-0.62-0.484-1.221-0.935-1.827-1.366
		c-0.393-0.263-0.768-0.526-1.126-0.789c-0.307-0.226-0.576-0.472-0.8-0.73c-0.206-0.238-0.374-0.506-0.499-0.796
		c-0.051-0.116-0.168-0.499-0.168-1.536v-1h-10.216v1c0,2.179,0.22,3.821,0.672,5.019c0.446,1.185,1.032,2.19,1.741,2.991
		c0.708,0.8,1.518,1.444,2.403,1.915c0.807,0.432,1.618,0.816,2.394,1.139c0.564,0.246,1.123,0.497,1.675,0.754
		c0.484,0.225,0.921,0.491,1.297,0.79c0.34,0.272,0.603,0.579,0.802,0.939c0.181,0.328,0.269,0.715,0.269,1.181
		c0,0.503-0.086,1.107-0.257,1.796c-0.144,0.582-0.366,1.268-0.662,2.044c-2.308,0.216-4.372,0.677-6.145,1.371
		c-1.937,0.76-3.625,1.727-5.02,2.873c-1.399,1.148-2.57,2.47-3.481,3.925c-0.896,1.43-1.615,2.952-2.138,4.524
		c-0.519,1.562-0.888,3.173-1.096,4.784c-0.207,1.596-0.312,3.146-0.312,4.609c0,3.104,0.549,5.992,1.631,8.581
		c1.084,2.591,2.596,4.843,4.493,6.692c1.896,1.849,4.138,3.302,6.666,4.318c2.524,1.016,5.264,1.531,8.143,1.531
		c2.925,0,5.707-0.521,8.267-1.549c2.566-1.029,4.827-2.494,6.722-4.354c1.895-1.86,3.411-4.109,4.506-6.686
		c1.096-2.58,1.651-5.452,1.651-8.535c0-3.59-0.515-6.759-1.531-9.417C141.385,117.458,140.012,115.196,138.322,113.401z
		 M123.038,143.578c-2.129,0-3.835-0.398-5.071-1.185c-1.249-0.794-2.225-1.854-2.901-3.148c-0.704-1.347-1.173-2.917-1.395-4.668
		c-0.232-1.827-0.35-3.749-0.35-5.712c0-2.162,0.135-4.221,0.401-6.121c0.256-1.834,0.744-3.442,1.449-4.78
		c0.671-1.277,1.634-2.299,2.863-3.036c1.229-0.739,2.876-1.113,4.896-1.113c1.921,0,3.499,0.372,4.69,1.107
		c1.199,0.739,2.161,1.775,2.858,3.08c0.728,1.363,1.239,2.996,1.519,4.854c0.289,1.923,0.435,4.024,0.435,6.248
		c0,1.23-0.053,2.481-0.157,3.717c-0.103,1.209-0.287,2.374-0.548,3.464c-0.255,1.065-0.614,2.067-1.066,2.979
		c-0.434,0.873-0.999,1.639-1.681,2.275c-0.673,0.631-1.499,1.133-2.454,1.491C125.559,143.393,124.386,143.578,123.038,143.578z"/>
	<path  d="M187.437,91.938c-1.758-1.3-3.862-2.301-6.252-2.975c-2.362-0.668-4.954-1.006-7.702-1.006
		c-2.434,0-4.737,0.285-6.848,0.849c-2.153,0.574-4.055,1.481-5.653,2.698c-1.62,1.233-2.909,2.828-3.831,4.738
		c-0.919,1.905-1.385,4.182-1.385,6.765c0,1.866,0.395,3.618,1.174,5.207c0.756,1.544,1.716,2.93,2.854,4.12
		c1.129,1.18,2.375,2.188,3.704,2.997c1.329,0.809,2.608,1.403,3.801,1.766l0.89,0.27l3.556-9.234l-1.074-0.288
		c-0.864-0.231-1.729-0.558-2.571-0.968c-0.826-0.403-1.578-0.893-2.236-1.457c-0.639-0.547-1.169-1.17-1.576-1.855
		c-0.374-0.629-0.556-1.311-0.556-2.084c0-0.926,0.236-1.75,0.722-2.522c0.507-0.806,1.181-1.501,2.004-2.065
		c0.854-0.585,1.827-1.049,2.893-1.38c2.271-0.705,4.581-0.597,6.788-0.099c1.134,0.257,2.159,0.67,3.046,1.228
		c0.852,0.537,1.543,1.233,2.055,2.068c0.495,0.811,0.746,1.822,0.746,3.008v34.274c0,2.701-0.752,4.583-2.299,5.751
		c-1.613,1.218-3.964,1.835-6.988,1.835c-3.009,0-5.34-0.749-6.927-2.226c-1.566-1.46-2.36-3.788-2.36-6.921
		c0-1.097,0.105-2.105,0.313-2.998c0.209-0.9,0.48-1.706,0.805-2.396c0.324-0.687,0.686-1.283,1.075-1.773
		c0.382-0.48,0.758-0.859,1.117-1.126l0.591-0.438l-1.729-4.926l-0.808,0.109c-0.698,0.096-1.503,0.257-2.395,0.48
		c-0.915,0.229-1.855,0.562-2.797,0.992c-0.955,0.436-1.895,0.998-2.792,1.671c-0.92,0.688-1.752,1.534-2.474,2.515
		c-0.726,0.985-1.315,2.139-1.75,3.429c-0.438,1.296-0.66,2.785-0.66,4.426c0,2.464,0.551,4.736,1.638,6.754
		c1.077,1.997,2.583,3.729,4.479,5.145c1.872,1.399,4.098,2.491,6.617,3.245c2.5,0.748,5.234,1.128,8.127,1.128
		c2.998,0,5.762-0.318,8.214-0.947c2.495-0.641,4.667-1.639,6.456-2.966c1.814-1.348,3.239-3.076,4.233-5.136
		c0.99-2.05,1.493-4.48,1.493-7.223v-31.084c0-2.417-0.514-4.612-1.527-6.524C190.63,94.885,189.217,93.253,187.437,91.938z"/>
	<path  d="M239.285,113.401c-1.693-1.799-3.666-3.2-5.863-4.166c-1.777-0.781-3.613-1.319-5.472-1.606
		c0.274-0.861,0.493-1.694,0.655-2.487c0.238-1.169,0.359-2.241,0.359-3.187c0-1.329-0.176-2.494-0.524-3.462
		c-0.342-0.948-0.785-1.793-1.315-2.512c-0.529-0.715-1.139-1.345-1.813-1.873c-0.62-0.484-1.221-0.935-1.827-1.366
		c-0.393-0.263-0.768-0.526-1.126-0.789c-0.307-0.226-0.576-0.472-0.8-0.73c-0.206-0.238-0.374-0.506-0.499-0.796
		c-0.051-0.116-0.168-0.499-0.168-1.536v-1h-10.216v1c0,2.179,0.22,3.821,0.672,5.019c0.446,1.185,1.032,2.19,1.741,2.991
		c0.708,0.8,1.518,1.444,2.403,1.915c0.807,0.432,1.618,0.816,2.394,1.139c0.564,0.246,1.123,0.497,1.675,0.754
		c0.484,0.225,0.921,0.491,1.297,0.79c0.34,0.272,0.603,0.579,0.802,0.939c0.181,0.328,0.269,0.715,0.269,1.181
		c0,0.503-0.086,1.107-0.257,1.796c-0.144,0.582-0.366,1.268-0.662,2.044c-2.308,0.216-4.372,0.677-6.145,1.371
		c-1.937,0.76-3.625,1.727-5.02,2.873c-1.399,1.148-2.57,2.47-3.481,3.925c-0.896,1.43-1.615,2.952-2.138,4.524
		c-0.519,1.562-0.888,3.173-1.096,4.784c-0.207,1.596-0.312,3.146-0.312,4.609c0,3.104,0.549,5.992,1.631,8.581
		c1.084,2.591,2.596,4.843,4.493,6.692c1.896,1.849,4.138,3.302,6.666,4.318c2.524,1.016,5.264,1.531,8.143,1.531
		c2.925,0,5.707-0.521,8.267-1.549c2.566-1.03,4.828-2.495,6.722-4.354c1.896-1.86,3.411-4.109,4.506-6.686
		c1.097-2.58,1.652-5.452,1.652-8.535c0-3.59-0.515-6.759-1.53-9.417C242.347,117.458,240.974,115.195,239.285,113.401z
		 M224,143.578c-2.129,0-3.835-0.398-5.071-1.185c-1.249-0.794-2.225-1.854-2.901-3.148c-0.704-1.347-1.173-2.917-1.395-4.668
		c-0.232-1.827-0.35-3.749-0.35-5.712c0-2.162,0.135-4.221,0.401-6.121c0.256-1.834,0.744-3.442,1.449-4.78
		c0.671-1.277,1.634-2.299,2.863-3.036c1.229-0.739,2.876-1.113,4.896-1.113c1.921,0,3.499,0.372,4.69,1.107
		c1.199,0.739,2.161,1.775,2.857,3.081c0.729,1.363,1.239,2.996,1.519,4.853c0.289,1.919,0.436,4.021,0.436,6.248
		c0,1.229-0.053,2.479-0.156,3.717c-0.103,1.207-0.287,2.372-0.549,3.465c-0.254,1.062-0.612,2.064-1.065,2.979
		c-0.434,0.873-0.999,1.639-1.682,2.275c-0.673,0.631-1.499,1.133-2.454,1.491C226.521,143.393,225.348,143.578,224,143.578z"/>
	<path  d="M293.548,104.223c-0.66-2.145-1.526-4.221-2.577-6.171c-1.069-1.984-2.414-3.753-3.995-5.256
		c-1.595-1.514-3.475-2.732-5.587-3.624c-2.126-0.896-4.595-1.351-7.336-1.351c-2.695,0-5.122,0.449-7.213,1.335
		c-2.081,0.881-3.922,2.098-5.473,3.617c-1.533,1.506-2.833,3.269-3.864,5.238c-1.018,1.945-1.849,4.029-2.469,6.194
		c-0.62,2.158-1.069,4.393-1.336,6.64c-0.265,2.227-0.399,4.407-0.399,6.481c0,0.662,0.018,1.645,0.053,2.946
		c0.037,1.316,0.166,2.861,0.383,4.593c0.218,1.732,0.56,3.658,1.016,5.725c0.463,2.092,1.133,4.271,1.992,6.477
		c0.861,2.213,1.973,4.477,3.303,6.729c1.338,2.266,3.005,4.471,4.953,6.554l0.297,0.317h5.828v-6.598l-0.497-0.289
		c-0.897-0.522-1.675-1.314-2.312-2.355c-0.679-1.111-1.251-2.41-1.7-3.863c-0.458-1.479-0.813-3.094-1.055-4.799
		c-0.247-1.741-0.431-3.497-0.547-5.221c-0.117-1.727-0.188-3.444-0.211-5.106c-0.025-1.668-0.037-3.18-0.037-4.532
		c0-3.148,0.113-6.188,0.337-9.033c0.22-2.795,0.685-5.285,1.383-7.4c0.67-2.038,1.635-3.67,2.866-4.851
		c1.176-1.126,2.714-1.673,4.703-1.673c1.404,0,2.57,0.326,3.564,0.998c1.033,0.699,1.928,1.648,2.658,2.821
		c0.758,1.221,1.376,2.639,1.837,4.214c0.473,1.625,0.841,3.322,1.096,5.042c0.255,1.731,0.432,3.477,0.526,5.187
		c0.093,1.704,0.141,3.284,0.141,4.695c0,3.14-0.03,6.135-0.089,8.904c-0.058,2.744-0.271,5.278-0.631,7.532
		c-0.354,2.21-0.916,4.166-1.672,5.816c-0.726,1.585-1.727,2.793-3.062,3.693l-0.44,0.298v6.485h5.807l0.299-0.335
		c1.859-2.087,3.455-4.188,4.744-6.242c1.283-2.049,2.359-4.082,3.198-6.043c0.837-1.96,1.491-3.915,1.945-5.811
		c0.447-1.871,0.778-3.708,0.985-5.461c0.205-1.752,0.327-3.456,0.364-5.065c0.035-1.603,0.053-3.131,0.053-4.587
		c0-2-0.141-4.126-0.418-6.319C294.679,108.562,294.203,106.36,293.548,104.223z"/>
</g>
</svg>
