<?xml version="1.0" encoding="utf-8"?>
<!-- Generator: Adobe Illustrator 16.0.0, SVG Export Plug-In . SVG Version: 6.00 Build 0)  -->
<!DOCTYPE svg PUBLIC "-//W3C//DTD SVG 1.1//EN" "http://www.w3.org/Graphics/SVG/1.1/DTD/svg11.dtd">
<svg version="1.1" id="Layer_1" xmlns="http://www.w3.org/2000/svg" xmlns:xlink="http://www.w3.org/1999/xlink" x="0px" y="0px"
	 width="333.406px" height="143.698px" viewBox="0 0 333.406 143.698" enable-background="new 0 0 333.406 143.698"
	 xml:space="preserve">
<g>
	<path d="M44.003,33.083c-1.854-2.193-4.882-3.592-9.082-4.197v-0.411c3.559-1.042,6.017-2.634,7.377-4.772
		c1.359-2.141,2.039-4.938,2.039-8.395c0-4.827-1.582-8.422-4.745-10.781c-3.164-2.358-7.736-3.539-13.716-3.539H0V8.97l5.116,1.399
		v38.268L0,50.036v7.982h27.136c6.87,0,11.862-1.344,14.976-4.032c3.114-2.688,4.671-6.473,4.671-11.356
		C46.783,38.46,45.856,35.278,44.003,33.083z M19.87,10.123h3.707c2.026,0,3.57,0.534,4.634,1.604
		c1.062,1.07,1.594,3.032,1.594,5.885c0,2.744-0.556,4.648-1.668,5.719c-1.112,1.07-2.607,1.605-4.485,1.605H19.87V10.123z
		 M29.36,47.073c-1.138,1.208-2.843,1.811-5.116,1.811H19.87V33.083h4.3c2.273,0,3.991,0.617,5.153,1.852
		c1.161,1.234,1.742,3.279,1.742,6.131C31.065,43.864,30.497,45.868,29.36,47.073z"/>
	<path d="M99.348,10.37l4.523-1.399V0.987H84.965V8.97l4.67,1.317v28.392c0,3.841-0.729,6.529-2.187,8.065
		c-1.458,1.536-3.596,2.304-6.413,2.304c-2.769,0-4.943-0.768-6.524-2.304c-1.583-1.536-2.373-4.225-2.373-8.065V10.288L76.81,8.97
		V0.987H52.269V8.97l4.819,1.399v29.461c0,2.963,0.432,5.625,1.297,7.983c0.864,2.359,2.187,4.362,3.966,6.007
		c1.78,1.646,4.052,2.922,6.821,3.828c2.768,0.904,6.054,1.357,9.86,1.357c3.707,0,6.845-0.508,9.416-1.523
		c2.569-1.014,4.658-2.413,6.265-4.196c1.606-1.782,2.78-3.909,3.522-6.378c0.741-2.469,1.112-5.185,1.112-8.147V10.37z"/>
	<path d="M160.365,28.557c0-4.938-0.593-9.148-1.78-12.633c-1.186-3.483-2.891-6.337-5.115-8.559
		c-2.225-2.223-4.919-3.84-8.082-4.856c-3.164-1.014-6.723-1.522-10.676-1.522h-24.985V8.97l5.042,1.399v38.268l-5.116,1.398v7.982
		h25.282c3.755,0,7.191-0.576,10.305-1.728c3.114-1.152,5.795-2.922,8.044-5.308c2.249-2.387,3.991-5.445,5.227-9.177
		C159.747,38.077,160.365,33.659,160.365,28.557z M143.943,38.926c-0.47,2.414-1.149,4.32-2.039,5.719
		c-0.89,1.399-2.002,2.374-3.336,2.922c-1.334,0.549-2.867,0.823-4.597,0.823h-4.152V10.616h3.484c1.828,0,3.448,0.234,4.856,0.699
		c1.409,0.467,2.595,1.373,3.559,2.717c0.964,1.345,1.692,3.265,2.187,5.76c0.494,2.498,0.742,5.803,0.742,9.918
		C144.647,33.44,144.412,36.512,143.943,38.926z"/>
	<path d="M174.526,52.299c2.372,2.332,5.251,4.032,8.638,5.102c3.385,1.07,7.203,1.605,11.454,1.605
		c3.707,0,7.18-0.33,10.417-0.988c3.236-0.658,5.845-1.37,7.822-2.139V39.008l4.003-1.316v-7.982h-22.687v7.982l4.597,1.316v9.135
		c-0.495,0.22-1.149,0.412-1.965,0.576s-1.668,0.246-2.558,0.246c-2.076,0-3.831-0.342-5.265-1.027s-2.607-1.838-3.521-3.457
		c-0.915-1.617-1.569-3.744-1.965-6.378s-0.593-5.897-0.593-9.794c0-5.869,0.901-10.328,2.706-13.373
		c1.804-3.045,4.708-4.566,8.712-4.566c1.531,0,2.768,0.11,3.707,0.328c0.938,0.221,1.804,0.523,2.595,0.906l2.521,7.818h8.971
		l-0.593-16.789c-1.681-0.768-3.967-1.399-6.858-1.893C201.773,0.247,198.646,0,195.286,0c-3.757,0-7.34,0.522-10.751,1.563
		c-3.41,1.043-6.401,2.73-8.971,5.061c-2.57,2.333-4.622,5.405-6.153,9.218c-1.533,3.813-2.299,8.518-2.299,14.113
		c0,5.213,0.642,9.657,1.928,13.332C170.325,46.963,172.154,49.967,174.526,52.299z"/>
	<polygon points="267.792,38.844 259.413,38.844 255.854,48.883 242.657,48.883 242.657,33.248 247.255,33.248
		248.589,38.761 255.261,38.761 255.261,19.257 248.589,19.257 247.255,24.606 242.657,24.606 242.657,10.123 255.632,10.123
		258.302,18.27 266.53,18.27 265.864,0.987 222.79,0.987 222.79,8.97 227.904,10.37 227.904,48.637 222.79,50.036 222.79,58.018
		267.05,58.018 	"/>
	<polygon points="284.546,10.37 289.958,10.37 289.958,48.637 284.397,50.036 284.397,58.018 310.421,58.018
		310.421,50.036 304.935,48.637 304.935,10.37 310.347,10.37 312.571,20.327 321.245,20.327 320.653,0.987 274.241,0.987
		273.573,20.327 282.321,20.327 	"/>
	<path d="M35.366,113.124c-1.236-1.287-2.743-2.398-4.522-3.332c-1.78-0.932-3.831-1.838-6.154-2.717l-3.04-1.234
		c-2.372-0.932-4.165-1.852-5.375-2.756c-1.212-0.906-1.816-2.182-1.816-3.826c0-1.646,0.568-2.895,1.705-3.746
		c1.137-0.85,2.644-1.275,4.523-1.275c1.235,0,2.285,0.125,3.151,0.371c0.864,0.246,1.643,0.562,2.335,0.945l1.409,5.432h9.045
		l-0.741-14.072c-1.434-0.547-3.325-1.07-5.672-1.562c-2.348-0.494-5.375-0.742-9.082-0.742c-3.609,0-6.698,0.441-9.268,1.318
		c-2.571,0.877-4.671,2.111-6.302,3.703c-1.631,1.592-2.817,3.471-3.559,5.637c-0.741,2.168-1.112,4.568-1.112,7.201
		c0,2.523,0.284,4.678,0.853,6.459c0.567,1.785,1.383,3.32,2.446,4.609c1.062,1.289,2.373,2.387,3.93,3.293
		c1.557,0.904,3.348,1.742,5.375,2.51l2.966,1.234c2.521,0.986,4.51,2.002,5.968,3.045c1.457,1.043,2.187,2.496,2.187,4.361
		c0,1.756-0.569,3.168-1.705,4.238c-1.138,1.07-2.867,1.604-5.19,1.604c-1.384,0-2.546-0.107-3.485-0.328
		c-0.939-0.219-1.829-0.549-2.669-0.988l-1.854-7.076H0.52l0.742,15.471c0.988,0.439,2.137,0.822,3.447,1.152
		c1.309,0.33,2.706,0.617,4.189,0.863c1.483,0.248,3.014,0.439,4.597,0.576c1.582,0.137,3.138,0.207,4.671,0.207
		c6.87,0,12.072-1.688,15.606-5.062c3.533-3.373,5.301-8.023,5.301-13.949c0-2.742-0.31-5.031-0.927-6.871
		C37.527,115.978,36.601,114.415,35.366,113.124z"/>
	<polygon points="45.893,85.679 45.226,105.019 53.974,105.019 56.199,95.062 61.611,95.062 61.611,133.329
		56.05,134.728 56.05,142.71 82.074,142.71 82.074,134.728 76.587,133.329 76.587,95.062 82,95.062 84.224,105.019 92.898,105.019
		92.305,85.679 	"/>
	<path d="M141.792,91.851c-2.2-2.412-4.795-4.209-7.785-5.389c-2.991-1.18-6.265-1.77-9.824-1.77
		c-3.262,0-6.401,0.576-9.416,1.727c-3.016,1.152-5.685,2.951-8.007,5.391c-2.324,2.443-4.189,5.543-5.598,9.301
		s-2.113,8.242-2.113,13.455c0,4.938,0.617,9.23,1.854,12.879c1.235,3.648,2.953,6.68,5.152,9.094
		c2.199,2.414,4.807,4.211,7.822,5.391c3.014,1.18,6.302,1.77,9.86,1.77c3.262,0,6.4-0.59,9.416-1.77
		c3.014-1.18,5.683-2.977,8.007-5.391c2.322-2.414,4.176-5.5,5.561-9.258c1.383-3.758,2.076-8.242,2.076-13.455
		c0-4.939-0.619-9.23-1.854-12.881C145.709,97.298,143.991,94.267,141.792,91.851z M130.746,129.255
		c-1.607,2.881-3.892,4.32-6.858,4.32c-1.631,0-3.028-0.342-4.189-1.029c-1.162-0.686-2.113-1.811-2.854-3.373
		c-0.741-1.564-1.286-3.621-1.631-6.172c-0.347-2.553-0.519-5.721-0.519-9.506c0-6.637,0.815-11.426,2.447-14.361
		c1.631-2.934,3.904-4.402,6.821-4.402c1.531,0,2.878,0.33,4.041,0.988c1.161,0.658,2.125,1.756,2.892,3.291
		c0.766,1.537,1.334,3.594,1.705,6.172c0.371,2.58,0.556,5.789,0.556,9.629C133.155,121.56,132.351,126.374,130.746,129.255z"/>
	<path d="M192.987,116.294v-0.33c1.235-0.547,2.384-1.193,3.447-1.934c1.062-0.74,1.989-1.646,2.78-2.717
		c0.79-1.068,1.409-2.316,1.854-3.744c0.445-1.426,0.668-3.098,0.668-5.02c0-2.633-0.384-4.992-1.149-7.078
		c-0.767-2.084-1.953-3.854-3.559-5.307c-1.607-1.453-3.67-2.564-6.191-3.334c-2.521-0.768-5.536-1.152-9.045-1.152h-26.394v7.982
		l5.116,1.482v38.186l-5.19,1.398v7.982h24.541v-7.982l-4.3-1.234v-13.496h3.559l11.195,22.713h15.569v-7.982l-3.781-1.152
		L192.987,116.294z M185.24,109.052c-0.964,1.535-2.633,2.303-5.005,2.303h-4.671V95.226h4.152c2.421,0,4.188,0.59,5.301,1.77
		s1.668,3.086,1.668,5.719C186.685,105.403,186.204,107.517,185.24,109.052z"/>
	<polygon points="211.447,93.661 216.636,95.062 216.636,133.329 211.447,134.728 211.447,142.71 236.874,142.71
		236.874,134.728 231.685,133.329 231.685,95.062 236.874,93.661 236.874,85.679 211.447,85.679 	"/>
	<polygon points="276.169,133.575 262.972,133.575 262.972,117.938 267.569,117.938 268.903,123.452
		275.575,123.452 275.575,103.948 268.903,103.948 267.569,109.298 262.972,109.298 262.972,94.813 275.946,94.813 278.616,102.962
		286.845,102.962 286.179,85.679 243.103,85.679 243.103,93.661 248.218,95.062 248.218,133.329 243.103,134.728 243.103,142.71
		287.364,142.71 288.106,123.536 279.728,123.536 	"/>
	<path d="M332.478,117.815c-0.617-1.838-1.545-3.4-2.779-4.691c-1.236-1.287-2.744-2.398-4.523-3.332
		c-1.779-0.932-3.83-1.838-6.152-2.717l-3.041-1.234c-2.371-0.932-4.164-1.852-5.375-2.756c-1.211-0.906-1.816-2.182-1.816-3.826
		c0-1.646,0.568-2.895,1.705-3.746c1.137-0.85,2.645-1.275,4.523-1.275c1.234,0,2.285,0.125,3.15,0.371s1.643,0.562,2.336,0.945
		l1.408,5.432h9.045l-0.74-14.072c-1.436-0.547-3.326-1.07-5.672-1.562c-2.35-0.494-5.375-0.742-9.082-0.742
		c-3.609,0-6.699,0.441-9.268,1.318c-2.572,0.877-4.672,2.111-6.303,3.703s-2.818,3.471-3.559,5.637
		c-0.742,2.168-1.113,4.568-1.113,7.201c0,2.523,0.285,4.678,0.854,6.459c0.568,1.785,1.383,3.32,2.447,4.609
		c1.062,1.289,2.371,2.387,3.93,3.293c1.557,0.904,3.348,1.742,5.375,2.51l2.965,1.234c2.521,0.986,4.51,2.002,5.969,3.045
		c1.457,1.043,2.188,2.496,2.188,4.361c0,1.756-0.57,3.168-1.705,4.238c-1.139,1.07-2.867,1.604-5.191,1.604
		c-1.383,0-2.545-0.107-3.484-0.328c-0.939-0.219-1.828-0.549-2.668-0.988l-1.854-7.076h-9.193l0.74,15.471
		c0.988,0.439,2.139,0.822,3.447,1.152c1.311,0.33,2.707,0.617,4.189,0.863c1.482,0.248,3.014,0.439,4.598,0.576
		c1.58,0.137,3.137,0.207,4.67,0.207c6.869,0,12.072-1.688,15.607-5.062c3.533-3.373,5.301-8.023,5.301-13.949
		C333.405,121.944,333.095,119.655,332.478,117.815z"/>
</g>
</svg>
