<?xml version="1.0" encoding="utf-8"?>
<!-- Generator: Adobe Illustrator 16.0.0, SVG Export Plug-In . SVG Version: 6.00 Build 0)  -->
<!DOCTYPE svg PUBLIC "-//W3C//DTD SVG 1.1//EN" "http://www.w3.org/Graphics/SVG/1.1/DTD/svg11.dtd">
<svg version="1.1" id="Layer_1" xmlns="http://www.w3.org/2000/svg" xmlns:xlink="http://www.w3.org/1999/xlink" x="0px" y="0px"
	 width="18.539px" height="34.522px" viewBox="0 0 18.539 34.522" enable-background="new 0 0 18.539 34.522" xml:space="preserve">
<g>
	<g>
		<g>
			<path fill="#FFFFF3" d="M18.539,10.546c0,2.067,0,4.022,0,6.089c-1.576,0-3.207,0-4.784,0c-0.163,0-0.325,0-0.651,0
				c0,0.164,0,0.326,0,0.488c-0.11,0.328-0.11,0.599-0.11,0.925c0,5.436,0,11.036,0,16.473c-2.556,0-5.108,0-7.829,0
				c-0.162-0.162-0.162-0.326-0.162-0.49c0-5.762,0-11.361,0-17.124c0-0.163,0-0.327,0-0.327c0-0.164,0-0.164-0.163-0.164
				c-0.162,0-0.162,0-0.325,0c-1.305,0-2.719,0-4.025,0c-0.161,0-0.323,0-0.488-0.162c0-1.902,0-3.861,0-5.763
				c0.165-0.109,0.327-0.109,0.488-0.109c1.415,0,2.883,0,4.298,0c0.161,0,0.161,0,0.161-0.164c0-0.651,0-1.413,0-2.065
				c0-0.816,0-1.414,0.164-2.229c0-0.164,0-0.49,0.164-0.651c0.162-0.653,0.323-1.307,0.812-1.74
				c0.166-0.326,0.491-0.653,0.654-0.979c0.49-0.489,0.979-0.979,1.577-1.413c0.489-0.326,1.14-0.653,1.738-0.815
				C10.547,0.163,10.875,0,11.473,0.163c0,0,0,0,0-0.163c2.066,0,4.293,0,6.414,0c0,0,0,0.163,0.164,0.163c0.161,0,0.325,0,0.488,0
				c0,2.067,0,4.023,0,6.089c-1.14,0-2.065,0-3.207,0c-0.164,0-0.489,0-0.653,0.163c-0.489,0.164-0.979,0.489-1.304,1.142
				c-0.164,0.164-0.326,0.488-0.326,0.816c-0.056,0.596-0.056,1.197-0.056,1.848c0,0.164,0.163,0.164,0.163,0.164
				c0.164,0,0.164,0,0.326,0C15.223,10.546,16.963,10.546,18.539,10.546z"/>
		</g>
	</g>
</g>
</svg>
