<?xml version="1.0" encoding="utf-8"?>
<!-- Generator: Adobe Illustrator 16.0.0, SVG Export Plug-In . SVG Version: 6.00 Build 0)  -->
<!DOCTYPE svg PUBLIC "-//W3C//DTD SVG 1.1//EN" "http://www.w3.org/Graphics/SVG/1.1/DTD/svg11.dtd">
<svg version="1.1" id="Layer_1" xmlns="http://www.w3.org/2000/svg" xmlns:xlink="http://www.w3.org/1999/xlink" x="0px" y="0px"
	 width="1101.437px" height="199.489px" viewBox="0 0 1101.437 199.489" enable-background="new 0 0 1101.437 199.489"
	 xml:space="preserve">
<g>
	<path opacity="0.9" fill="#F95858" d="M550.719,199.312l550.718-0.271c-128.4-35.015-125.627-33.484-265.844-90.385
		C737.326,68.778,646.871,3.017,558.509,3.017c-123.592,0-131.004,98.054-391.208,157.863
		C102.715,175.726,0.917,199.041,0.917,199.041L550.719,199.312L550.719,199.312L550.719,199.312L550.719,199.312L550.719,199.312z"
		/>
	<path opacity="0.95" fill="#FB5557" d="M852.917,151.656c-77.324-23.706-141.676-87.685-266.055-87.685l0,0l0,0l0,0l0,0
		c-124.379,0-183.44,94.983-262.291,94.983c-101.852,0-153.551-22.038-218.429-16.079C49.375,148.09,0,199.489,0,199.489h1101.437
		C1101.437,199.489,950.296,181.511,852.917,151.656z"/>
	<g opacity="0.5">
		<g opacity="0.3">
			<g>
				<line fill="none" stroke="#FFFFFF" stroke-miterlimit="10" x1="38.06" y1="171.609" x2="38.06" y2="174.109"/>
				
					<line fill="none" stroke="#FFFFFF" stroke-miterlimit="10" stroke-dasharray="4.5405,4.5405" x1="38.06" y1="178.649" x2="38.06" y2="194.542"/>
				<line fill="none" stroke="#FFFFFF" stroke-miterlimit="10" x1="38.06" y1="196.812" x2="38.06" y2="199.312"/>
			</g>
		</g>
		<g opacity="0.3">
			<g>
				<line fill="none" stroke="#FFFFFF" stroke-miterlimit="10" x1="104.521" y1="144.611" x2="104.521" y2="147.111"/>
				
					<line fill="none" stroke="#FFFFFF" stroke-miterlimit="10" stroke-dasharray="5.5223,5.5223" x1="104.521" y1="152.634" x2="104.521" y2="194.051"/>
				<line fill="none" stroke="#FFFFFF" stroke-miterlimit="10" x1="104.521" y1="196.812" x2="104.521" y2="199.312"/>
			</g>
		</g>
		<g opacity="0.3">
			<g>
				<line fill="none" stroke="#FFFFFF" stroke-miterlimit="10" x1="170.982" y1="144" x2="170.982" y2="146.5"/>
				
					<line fill="none" stroke="#FFFFFF" stroke-miterlimit="10" stroke-dasharray="4.5738,4.5738" x1="170.982" y1="151.073" x2="170.982" y2="194.524"/>
				<line fill="none" stroke="#FFFFFF" stroke-miterlimit="10" x1="170.982" y1="196.812" x2="170.982" y2="199.312"/>
			</g>
		</g>
		<g opacity="0.3">
			<g>
				<line fill="none" stroke="#FFFFFF" stroke-miterlimit="10" x1="237.442" y1="142" x2="237.442" y2="144.5"/>
				
					<line fill="none" stroke="#FFFFFF" stroke-miterlimit="10" stroke-dasharray="4.7556,4.7556" x1="237.442" y1="149.256" x2="237.442" y2="194.435"/>
				<line fill="none" stroke="#FFFFFF" stroke-miterlimit="10" x1="237.442" y1="196.812" x2="237.442" y2="199.312"/>
			</g>
		</g>
		<g opacity="0.3">
			<g>
				<line fill="none" stroke="#FFFFFF" stroke-miterlimit="10" x1="303.903" y1="119" x2="303.903" y2="121.5"/>
				
					<line fill="none" stroke="#FFFFFF" stroke-miterlimit="10" stroke-dasharray="5.0208,5.0208" x1="303.903" y1="126.521" x2="303.903" y2="194.302"/>
				<line fill="none" stroke="#FFFFFF" stroke-miterlimit="10" x1="303.903" y1="196.812" x2="303.903" y2="199.312"/>
			</g>
		</g>
		<g opacity="0.3">
			<g>
				<line fill="none" stroke="#FFFFFF" stroke-miterlimit="10" x1="370.365" y1="87" x2="370.365" y2="89.5"/>
				
					<line fill="none" stroke="#FFFFFF" stroke-miterlimit="10" stroke-dasharray="5.1101,5.1101" x1="370.365" y1="94.61" x2="370.365" y2="194.257"/>
				<line fill="none" stroke="#FFFFFF" stroke-miterlimit="10" x1="370.365" y1="196.812" x2="370.365" y2="199.312"/>
			</g>
		</g>
		<g opacity="0.3">
			<g>
				<line fill="none" stroke="#FFFFFF" stroke-miterlimit="10" x1="436.826" y1="50" x2="436.826" y2="52.5"/>
				
					<line fill="none" stroke="#FFFFFF" stroke-miterlimit="10" stroke-dasharray="4.9763,4.9763" x1="436.826" y1="57.476" x2="436.826" y2="194.323"/>
				<line fill="none" stroke="#FFFFFF" stroke-miterlimit="10" x1="436.826" y1="196.812" x2="436.826" y2="199.312"/>
			</g>
		</g>
		<g opacity="0.3">
			<g>
				<line fill="none" stroke="#FFFFFF" stroke-miterlimit="10" x1="503.288" y1="18" x2="503.288" y2="20.5"/>
				
					<line fill="none" stroke="#FFFFFF" stroke-miterlimit="10" stroke-dasharray="5.0375,5.0375" x1="503.288" y1="25.538" x2="503.288" y2="194.294"/>
				<line fill="none" stroke="#FFFFFF" stroke-miterlimit="10" x1="503.288" y1="196.812" x2="503.288" y2="199.312"/>
			</g>
		</g>
		<g opacity="0.3">
			<g>
				<line fill="none" stroke="#FFFFFF" stroke-miterlimit="10" x1="569.75" y1="0" x2="569.75" y2="2.5"/>
				
					<line fill="none" stroke="#FFFFFF" stroke-miterlimit="10" stroke-dasharray="4.9824,4.9824" x1="569.75" y1="7.482" x2="569.75" y2="194.321"/>
				<line fill="none" stroke="#FFFFFF" stroke-miterlimit="10" x1="569.75" y1="196.812" x2="569.75" y2="199.312"/>
			</g>
		</g>
		<g opacity="0.3">
			<g>
				<line fill="none" stroke="#FFFFFF" stroke-miterlimit="10" x1="636.207" y1="18.667" x2="636.207" y2="21.167"/>
				
					<line fill="none" stroke="#FFFFFF" stroke-miterlimit="10" stroke-dasharray="5.0184,5.0184" x1="636.207" y1="26.186" x2="636.207" y2="194.303"/>
				<line fill="none" stroke="#FFFFFF" stroke-miterlimit="10" x1="636.207" y1="196.812" x2="636.207" y2="199.312"/>
			</g>
		</g>
		<g opacity="0.3">
			<g>
				<line fill="none" stroke="#FFFFFF" stroke-miterlimit="10" x1="702.669" y1="44.23" x2="702.669" y2="46.73"/>
				
					<line fill="none" stroke="#FFFFFF" stroke-miterlimit="10" stroke-dasharray="4.8413,4.8413" x1="702.669" y1="51.572" x2="702.669" y2="194.392"/>
				<line fill="none" stroke="#FFFFFF" stroke-miterlimit="10" x1="702.669" y1="196.812" x2="702.669" y2="199.312"/>
			</g>
		</g>
		<g opacity="0.3">
			<g>
				<line fill="none" stroke="#FFFFFF" stroke-miterlimit="10" x1="769.13" y1="79.68" x2="769.13" y2="82.18"/>
				
					<line fill="none" stroke="#FFFFFF" stroke-miterlimit="10" stroke-dasharray="4.984,4.984" x1="769.13" y1="87.164" x2="769.13" y2="194.319"/>
				<line fill="none" stroke="#FFFFFF" stroke-miterlimit="10" x1="769.13" y1="196.812" x2="769.13" y2="199.312"/>
			</g>
		</g>
		<g opacity="0.3">
			<g>
				<line fill="none" stroke="#FFFFFF" stroke-miterlimit="10" x1="835.593" y1="109.513" x2="835.593" y2="112.013"/>
				
					<line fill="none" stroke="#FFFFFF" stroke-miterlimit="10" stroke-dasharray="4.9882,4.9882" x1="835.593" y1="117.001" x2="835.593" y2="194.317"/>
				<line fill="none" stroke="#FFFFFF" stroke-miterlimit="10" x1="835.593" y1="196.812" x2="835.593" y2="199.312"/>
			</g>
		</g>
		<g opacity="0.3">
			<g>
				<line fill="none" stroke="#FFFFFF" stroke-miterlimit="10" x1="902.054" y1="135.443" x2="902.054" y2="137.943"/>
				
					<line fill="none" stroke="#FFFFFF" stroke-miterlimit="10" stroke-dasharray="5.3517,5.3517" x1="902.054" y1="143.295" x2="902.054" y2="194.136"/>
				<line fill="none" stroke="#FFFFFF" stroke-miterlimit="10" x1="902.054" y1="196.812" x2="902.054" y2="199.312"/>
			</g>
		</g>
		<g opacity="0.3">
			<g>
				<line fill="none" stroke="#FFFFFF" stroke-miterlimit="10" x1="968.515" y1="160" x2="968.515" y2="162.5"/>
				
					<line fill="none" stroke="#FFFFFF" stroke-miterlimit="10" stroke-dasharray="4.9017,4.9017" x1="968.515" y1="167.401" x2="968.515" y2="194.361"/>
				<line fill="none" stroke="#FFFFFF" stroke-miterlimit="10" x1="968.515" y1="196.812" x2="968.515" y2="199.312"/>
			</g>
		</g>
		<g opacity="0.3">
			<g>
				<line fill="none" stroke="#FFFFFF" stroke-miterlimit="10" x1="1034.974" y1="174" x2="1034.974" y2="176.5"/>
				
					<line fill="none" stroke="#FFFFFF" stroke-miterlimit="10" stroke-dasharray="4.0624,4.0624" x1="1034.974" y1="180.562" x2="1034.974" y2="194.78"/>
				<line fill="none" stroke="#FFFFFF" stroke-miterlimit="10" x1="1034.974" y1="196.812" x2="1034.974" y2="199.312"/>
			</g>
		</g>
	</g>
</g>
</svg>
