<?xml version="1.0" encoding="utf-8"?>
<!-- Generator: Adobe Illustrator 16.0.0, SVG Export Plug-In . SVG Version: 6.00 Build 0)  -->
<!DOCTYPE svg PUBLIC "-//W3C//DTD SVG 1.1//EN" "http://www.w3.org/Graphics/SVG/1.1/DTD/svg11.dtd">
<svg version="1.1" id="Layer_1" xmlns="http://www.w3.org/2000/svg" xmlns:xlink="http://www.w3.org/1999/xlink" x="0px" y="0px"
	 width="40.388px" height="32.926px" viewBox="0 0 40.388 32.926" enable-background="new 0 0 40.388 32.926" xml:space="preserve">
<path fill-rule="evenodd" clip-rule="evenodd" fill="#FFFFF3" d="M0,29.219c4.535,0.439,8.59-0.691,12.191-3.441
	c-1.758-0.09-3.355-0.621-4.768-1.676c-1.404-1.053-2.377-2.416-2.949-4.115c1.26,0.217,2.465,0.189,3.668-0.146
	c-1.912-0.453-3.51-1.414-4.744-2.945c-1.238-1.537-1.836-3.299-1.84-5.309c1.172,0.629,2.391,0.986,3.75,1.031
	C3.504,11.34,2.321,9.684,1.84,7.565C1.362,5.458,1.667,3.453,2.747,1.522c2.139,2.602,4.682,4.658,7.658,6.167
	c2.969,1.507,6.123,2.338,9.467,2.514c-0.045-0.285-0.094-0.539-0.123-0.794c-0.275-2.321,0.271-4.423,1.729-6.258
	c1.398-1.756,3.227-2.807,5.459-3.082c2.523-0.309,4.75,0.409,6.656,2.104c0.127,0.114,0.244,0.246,0.379,0.353
	c0.055,0.046,0.154,0.08,0.223,0.066c1.625-0.327,3.166-0.896,4.623-1.689c0.16-0.087,0.316-0.175,0.514-0.285
	c-0.67,1.972-1.869,3.467-3.584,4.564c1.604-0.179,3.137-0.603,4.613-1.241c0.01,0.013,0.018,0.024,0.027,0.036
	c-0.035,0.056-0.066,0.113-0.105,0.167c-1.041,1.492-2.283,2.79-3.742,3.875c-0.178,0.131-0.238,0.264-0.23,0.481
	c0.078,2.238-0.178,4.441-0.74,6.607c-0.836,3.219-2.252,6.158-4.266,8.809c-1.887,2.48-4.176,4.51-6.893,6.045
	c-2.285,1.295-4.732,2.146-7.322,2.596c-1.299,0.225-2.607,0.338-3.93,0.365c-2.012,0.039-3.998-0.164-5.955-0.631
	c-2.232-0.531-4.342-1.373-6.328-2.521c-0.273-0.158-0.537-0.322-0.805-0.486C0.057,29.276,0.047,29.262,0,29.219z"/>
</svg>
